<?xml version="1.0" encoding="UTF-8"?><svg id="Capa_1" xmlns="http://www.w3.org/2000/svg" width="22" height="22" viewBox="0 0 22 22"><path id="noun_avatar_2102861" d="m18.64,15.32l-4.2-1.72c-.22-.09-.37-.31-.38-.55v-.98c0-.13.04-.25.12-.35,1.11-1.44,1.72-3.21,1.72-5.03,0-3.1-1.97-5.19-4.91-5.19s-4.91,2.09-4.91,5.19c0,1.82.61,3.59,1.72,5.03.08.1.12.22.12.35v.98c0,.24-.15.46-.38.55l-4.2,1.72c-1.12.45-1.86,1.54-1.86,2.75v1.63c0,.44.35.79.79.79h17.42c.44,0,.79-.35.79-.79v-1.63c0-1.21-.73-2.3-1.86-2.75Zm.27,3.59H3.08v-.84c0-.57.35-1.08.87-1.29l4.2-1.72c.82-.33,1.36-1.13,1.36-2.01v-.98c0-.49-.16-.96-.47-1.34-.88-1.16-1.36-2.58-1.37-4.04,0-2.66,1.72-3.61,3.33-3.61s3.33.95,3.33,3.61c0,1.46-.49,2.88-1.37,4.04-.3.38-.47.85-.47,1.34v.98c0,.88.54,1.68,1.36,2.01l4.2,1.72c.53.21.87.72.87,1.29v.84Z" fill="#124c8f"/></svg>