<?xml version="1.0" encoding="UTF-8"?><svg id="Capa_1" xmlns="http://www.w3.org/2000/svg" width="22" height="22" viewBox="0 0 22 22"><g id="noun_cart_2102832"><path id="Trazado_5" d="m.9,1.83h1.53l2.3,10.35c-1.17.56-1.9,1.75-1.87,3.04-.08,1.72,1.24,3.18,2.96,3.27h12.15c.51.02.93-.38.95-.89.02-.51-.38-.93-.89-.95-.02,0-.04,0-.06,0H5.82c-.7-.1-1.2-.74-1.13-1.44-.07-.7.43-1.34,1.13-1.44h12.16c.39,0,.73-.24.86-.61l3.1-8.59c.17-.48-.08-1-.55-1.17-.1-.04-.2-.05-.31-.05H4.65l-.59-2.65C3.97.3,3.6,0,3.17,0H.9C.39.02,0,.44.01.95c.02.48.4.87.89.89Zm18.86,3.37l-2.43,6.76H6.55l-1.5-6.76s14.71,0,14.71,0Z" fill="#124c8f"/><path id="Trazado_6" d="m6.56,20.17c-.51.02-.9.44-.89.95.02.48.4.87.89.89h1.16c.51.02.93-.38.95-.89.02-.51-.38-.93-.89-.95-.02,0-.04,0-.06,0h-1.16Z" fill="#124c8f"/><path id="Trazado_7" d="m15.01,20.17c-.51.02-.9.44-.89.95.02.48.4.87.89.89h1.16c.51.02.93-.38.95-.89.02-.51-.38-.93-.89-.95-.02,0-.04,0-.06,0h-1.16Z" fill="#124c8f"/></g></svg>