<?xml version="1.0" encoding="UTF-8"?><svg id="Capa_1" xmlns="http://www.w3.org/2000/svg" width="22" height="22" viewBox="0 0 22 22"><path id="noun_Search_2102816" d="m8.13,16.26c1.84,0,3.62-.62,5.06-1.77l7.25,7.25c.36.36.94.36,1.3,0s.36-.94,0-1.3h0l-7.25-7.25c2.8-3.51,2.22-8.63-1.29-11.43C9.68-1.03,4.57-.45,1.77,3.06S-.45,11.69,3.06,14.48c1.44,1.15,3.23,1.77,5.07,1.77h0ZM3.67,3.68c2.46-2.46,6.45-2.47,8.91,0,2.46,2.46,2.47,6.45,0,8.91-2.46,2.46-6.45,2.47-8.91,0,0,0,0,0,0,0-2.46-2.43-2.48-6.39-.06-8.84.02-.02.04-.04.06-.06Z" fill="#124c8f"/></svg>