<?xml version="1.0" encoding="UTF-8"?><svg id="Facebook" xmlns="http://www.w3.org/2000/svg" width="25" height="25" viewBox="0 0 25 25"><path d="m25,4.75c-.93.41-1.92.68-2.95.81,1.06-.63,1.87-1.63,2.25-2.83-.99.59-2.08,1.01-3.25,1.24-.94-1-2.28-1.62-3.74-1.62-2.84,0-5.12,2.3-5.12,5.13,0,.41.03.8.12,1.17-4.26-.21-8.03-2.25-10.56-5.36-.44.77-.7,1.65-.7,2.59,0,1.77.91,3.35,2.28,4.26-.82-.02-1.63-.25-2.32-.63v.06c0,2.49,1.78,4.56,4.11,5.04-.42.11-.87.17-1.34.17-.33,0-.66-.02-.97-.09.66,2.03,2.55,3.52,4.79,3.57-1.74,1.36-3.96,2.19-6.35,2.19-.42,0-.82-.02-1.23-.07,2.27,1.46,4.96,2.3,7.86,2.3,9.43,0,14.59-7.81,14.59-14.58,0-.23,0-.45-.02-.66,1.02-.72,1.87-1.62,2.57-2.66Z" fill="#fff"/></svg>