<?xml version="1.0" encoding="UTF-8"?><svg id="Facebook" xmlns="http://www.w3.org/2000/svg" width="25" height="25" viewBox="0 0 25 25"><path d="m12.39,14.87c-.44-.36-.9-.61-1.43-.72-1.61-.35-3.21.73-3.53,2.41-.3,1.56.81,3.15,2.38,3.42,1.88.32,3.51-1.04,3.51-2.95,0-5.56,0-11.12,0-16.68,0-.35,0-.35.35-.35,1.44,0,2.87,0,4.31,0,.09,0,.18,0,.31,0,0,.12,0,.23,0,.33.02.54-.02,1.09.07,1.62.22,1.34,1.43,2.35,2.79,2.38.46.01.92,0,1.38,0v4.92c-.74,0-1.46.06-2.16-.02-.69-.07-1.37-.28-2.08-.43,0,.08,0,.19,0,.3,0,2.64.04,5.29-.01,7.93-.05,3.14-1.47,5.53-4.23,7.03-4.76,2.58-10.75-.45-11.52-5.8-.61-4.16,1.97-7.96,6.05-8.93,1.2-.29,2.41-.27,3.62,0,.15.04.21.09.21.25,0,1.71,0,3.43,0,5.14,0,.03,0,.06-.02.13Z" fill="#fff"/></svg>