<?xml version="1.0" encoding="UTF-8"?><svg id="Facebook" xmlns="http://www.w3.org/2000/svg" width="25" height="25" viewBox="0 0 25 25"><path d="m3.03.55C1.2.55,0,1.76,0,3.34s1.16,2.79,2.96,2.79h.03c1.87,0,3.03-1.24,3.03-2.79-.03-1.58-1.16-2.79-3-2.79Z" fill="#fff"/><path d="m.32,8.32h5.36v16.12H.32V8.32Z" fill="#fff"/><path d="m18.83,7.95c-2.89,0-4.83,2.72-4.83,2.72v-2.34h-5.36v16.12h5.36v-9c0-.48.03-.96.18-1.31.39-.96,1.27-1.96,2.75-1.96,1.94,0,2.71,1.48,2.71,3.65v8.63h5.36v-9.24c0-4.95-2.64-7.26-6.17-7.26Z" fill="#fff"/></svg>