<?xml version="1.0" encoding="UTF-8"?><svg id="Capa_1" xmlns="http://www.w3.org/2000/svg" width="426.07" height="84.45" viewBox="0 0 426.07 84.45"><g id="Grupo_5543"><path id="Trazado_218" d="m382.84,36.67c-3.95-5.8-8.24-11.46-10.15-18.05-1.39-4.8-1.78-11.04,1.67-15.38,3.29-4.13,10.6-.52,13.28,2.34,2.36,2.52,3.56,5.91,4.59,8.97.31.91.58,1.83.83,2.75,1.08-1.44,2.25-2.82,3.49-4.14,2.92-3.09,6.38-6.31,10.56-8.18,7.11-3.19,17.67.4,17.61,7.81-.03,3.9-3.12,7.13-6.23,9.76-3.6,3.02-7.44,5.73-11.48,8.12-5.78,3.39-11.96,6.06-18.39,7.94,3.04,4.12,5.39,8.71,6.95,13.59.19.7-5.17-.3-5.52-1.56-1.18-3.9-2.94-7.6-5.22-10.97m6.35-5.91c8-3.29,15.43-7.82,22.02-13.41,2.79-2.39,5.54-5.28,5.93-8.74.18-1.53-.16-3.07-.97-4.37-.22-.37-.49-.7-.8-1-1.64-1.45-.22-.17-.37-.19-1.28-.02-2.55.25-3.71.78-4.41,1.63-7.95,4.96-10.94,8.07-3.13,3.26-5.78,6.94-7.88,10.93-.47.9-5.47-.9-5.53-1.78-.25-3.51-.91-6.99-1.97-10.35-.97-3.05-2.09-6.67-4.42-9.19-.21-.23-.44-.44-.67-.65-.08.02-.17.03-.28.05-.6.38-1.16.82-1.68,1.3-.86,1.17-1.5,2.48-1.89,3.88-.87,2.9-.99,5.98-.34,8.94,1.28,6.44,5.01,11.97,8.82,17.49,1.58-.53,3.15-1.12,4.68-1.75h0Z" fill="#45b8ac"/><path id="Trazado_410" d="m1.35,83.07c34.83-32.36,81.72-40.59,125.91-37.78s87.55,15.43,131.64,19.95,90.87.1,128.21-28.06" fill="none" stroke="#45b8ac" stroke-miterlimit="10" stroke-width="3"/></g></svg>