<?xml version="1.0" encoding="UTF-8"?><svg id="Capa_1" xmlns="http://www.w3.org/2000/svg" width="44" height="44" viewBox="0 0 44 44"><g id="Grupo_5538"><path id="Trazado_2407" d="m22,0c12.15,0,22,9.85,22,22s-9.85,22-22,22S0,34.15,0,22,9.85,0,22,0Z" fill="#ff9c00"/><path id="noun_Heart_2102871" d="m26,14.39c-1.53,0-2.98.67-4,1.81-1.02-1.14-2.47-1.8-4-1.81-3.23.15-5.74,2.87-5.61,6.1,0,4.91,8.72,12.61,9.09,12.93.3.26.74.27,1.05,0,.37-.32,9.1-7.77,9.1-12.94.12-3.23-2.39-5.96-5.62-6.1Zm-3.99,17.36c-2.65-2.42-8.02-8.01-8.02-11.26-.12-2.35,1.67-4.36,4.01-4.5,1.37.03,2.63.77,3.32,1.96.23.38.72.5,1.1.27.11-.07.2-.16.27-.27.69-1.19,1.94-1.93,3.31-1.96,2.35.14,4.14,2.15,4.01,4.5,0,3.43-5.36,8.91-8,11.26Z" fill="#fff"/></g></svg>