<?xml version="1.0" encoding="UTF-8"?><svg id="Facebook" xmlns="http://www.w3.org/2000/svg" width="25" height="25" viewBox="0 0 25 25"><g><path d="m2.36.02l-.19.58-.19.58-.19.58-.19.58-.19.58-.19.58-.19.58-.19.58v17.15h6.24v3.12h3.12l.39-.39.39-.39.39-.39.39-.39.39-.39.39-.39.39-.39.39-.39h4.68l.78-.83.78-.83.78-.83.78-.83.78-.83.78-.83.78-.83.78-.83V.02H2.36Zm20.27,14.04l-.55.58-.55.58-.55.58-.55.58-.55.58-.55.58-.55.58-.55.58h-5.53l-.42.31-.42.31-.42.31-.42.31-.42.31-.42.31-.42.31-.42.31v-2.44H3.92V1.58h18.71v12.48Z" fill="#fff"/><path d="m10.17,25h-3.15v-3.12H.78V4.7S2.35,0,2.35,0h21.87v15.22h0s-6.25,6.66-6.25,6.66h-4.68l-3.12,3.12Zm-3.1-.05h3.08l3.12-3.12h4.68l6.22-6.63V.05H2.38L.83,4.71v17.13h6.24v3.12Zm2.29-3.72v-2.47H3.9V1.56h18.76v12.51l-4.38,4.69h-5.53l-3.39,2.47Zm-5.41-2.52h5.46v2.42l3.33-2.42h5.53l4.35-4.66V1.61H3.95v17.11Z" fill="#fff"/></g><g><polygon points="13.28 6.26 13.08 6.26 12.89 6.26 12.69 6.26 12.5 6.26 12.31 6.26 12.11 6.26 11.92 6.26 11.72 6.26 11.72 7.04 11.72 7.82 11.72 8.6 11.72 9.38 11.72 10.16 11.72 10.94 11.72 11.72 11.72 12.5 11.92 12.5 12.11 12.5 12.31 12.5 12.5 12.5 12.69 12.5 12.89 12.5 13.08 12.5 13.28 12.5 13.28 11.72 13.28 10.94 13.28 10.16 13.28 9.38 13.28 8.6 13.28 7.82 13.28 7.04 13.28 6.26" fill="#fff"/><path d="m13.3,12.52h-1.61v-6.29h1.61v6.29Zm-1.56-.05h1.51v-6.19h-1.51v6.19Z" fill="#fff"/></g><g><polygon points="17.96 6.26 17.76 6.26 17.57 6.26 17.37 6.26 17.18 6.26 16.98 6.26 16.79 6.26 16.59 6.26 16.4 6.26 16.4 7.04 16.4 7.82 16.4 8.6 16.4 9.38 16.4 10.16 16.4 10.94 16.4 11.72 16.4 12.5 16.59 12.5 16.79 12.5 16.98 12.5 17.18 12.5 17.37 12.5 17.57 12.5 17.76 12.5 17.96 12.5 17.96 11.72 17.96 10.94 17.96 10.16 17.96 9.38 17.96 8.6 17.96 7.82 17.96 7.04 17.96 6.26" fill="#fff"/><path d="m17.98,12.52h-1.61v-6.29h1.61v6.29Zm-1.56-.05h1.51v-6.19h-1.51v6.19Z" fill="#fff"/></g></svg>