<?xml version="1.0" encoding="UTF-8"?><svg id="Facebook" xmlns="http://www.w3.org/2000/svg" width="25" height="25" viewBox="0 0 25 25"><path d="m24.48,6.49c-.29-1.07-1.13-1.92-2.2-2.2-1.96-.54-9.78-.54-9.78-.54,0,0-7.83,0-9.78.51-1.05.29-1.92,1.15-2.2,2.22-.51,1.96-.51,6.01-.51,6.01,0,0,0,4.08.51,6.01.29,1.07,1.13,1.92,2.2,2.2,1.98.54,9.78.54,9.78.54,0,0,7.83,0,9.78-.51,1.07-.29,1.92-1.13,2.2-2.2.51-1.96.51-6.01.51-6.01,0,0,.02-4.08-.51-6.03Zm-14.48,9.76v-7.5l6.51,3.75-6.51,3.75Z" fill="#fff"/></svg>