<?xml version="1.0" encoding="UTF-8"?><svg id="Capa_1" xmlns="http://www.w3.org/2000/svg" width="50" height="50" xmlns:xlink="http://www.w3.org/1999/xlink" viewBox="0 0 50 50"><defs><linearGradient id="Degradado_sin_nombre_3" x1="-266.13" y1="438.07" x2="-265.26" y2="437.18" gradientTransform="translate(13310.3 21906.87) scale(50 -50)" gradientUnits="userSpaceOnUse"><stop offset="0" stop-color="#b6e1f9"/><stop offset="1" stop-color="#dcf1fd"/></linearGradient></defs><rect id="Rectángulo_661" x="0" width="50" height="50" rx="10" ry="10" fill="url(#Degradado_sin_nombre_3)"/><g id="noun_Happy_1563582"><path id="Trazado_193" d="m21.64,22.48c.46,0,.84.38.84.84h0c0,.46.38.84.84.84s.84-.38.84-.84c-.03-1.39-1.18-2.5-2.57-2.47-1.35.03-2.44,1.12-2.47,2.47,0,.46.38.84.84.84s.84-.38.84-.84.38-.84.84-.84Z" fill="#124c8f"/><path id="Trazado_194" d="m28.36,20.8c-1.39,0-2.52,1.13-2.52,2.52h0c0,.46.38.84.84.84s.84-.38.84-.84.38-.84.84-.84.84.38.84.84h0c0,.46.38.84.84.84s.84-.38.84-.84c0-1.39-1.13-2.52-2.52-2.52h0Z" fill="#124c8f"/><path id="Trazado_195" d="m25,14.92c-5.57,0-10.08,4.51-10.08,10.08,0,5.57,4.51,10.08,10.08,10.08,5.57,0,10.08-4.51,10.08-10.08s-4.51-10.08-10.08-10.08h0Zm0,18.48c-4.64,0-8.4-3.76-8.4-8.4s3.76-8.4,8.4-8.4,8.4,3.76,8.4,8.4-3.76,8.4-8.4,8.4h0Z" fill="#124c8f"/><path id="Trazado_196" d="m27.77,26.93l-.49.49c-1.27,1.21-3.27,1.21-4.55,0l-.49-.49c-.33-.33-.86-.33-1.19,0s-.33.86,0,1.19l.49.49c1.91,1.91,5,1.92,6.92.01,0,0,0,0,.01-.01l.49-.49c.33-.33.33-.86,0-1.19s-.86-.33-1.19,0h0Z" fill="#124c8f"/></g></svg>