<?xml version="1.0" encoding="UTF-8"?><svg id="Capa_1" xmlns="http://www.w3.org/2000/svg" width="50" height="50" xmlns:xlink="http://www.w3.org/1999/xlink" viewBox="0 0 50 50"><defs><linearGradient id="Degradado_sin_nombre_2" x1="-266.12" y1="438.06" x2="-265.29" y2="437.22" gradientTransform="translate(13310.3 21906.87) scale(50 -50)" gradientUnits="userSpaceOnUse"><stop offset="0" stop-color="#b6e1f9"/><stop offset="1" stop-color="#dcf1fd"/></linearGradient></defs><rect id="Rectángulo_660" width="50" height="50" rx="10" ry="10" fill="url(#Degradado_sin_nombre_2)"/><g id="Grupo_179"><path id="Trazado_189" d="m37.91,23.54l-1.22-2.82c-.44-1.02-1.46-1.69-2.57-1.68h-1.96v-.72c0-.6-.48-1.08-1.08-1.08h-13.72c-.39,0-.72.31-.72.71,0,0,0,0,0,.01,0,.39.32.71.72.72h13.3v5.31c0,.65.52,1.18,1.17,1.19,0,0,.01,0,.02,0h4.78v3.35c0,.14-.11.25-.25.25,0,0,0,0,0,0h-.88c-.48-.82-1.35-1.33-2.3-1.33-.95.01-1.82.52-2.3,1.33h-7.37c-.48-.82-1.35-1.33-2.3-1.33-.95.01-1.82.52-2.3,1.33h-2.53c-.4,0-.72.32-.72.72,0,.4.32.72.72.72h2.18c.06,1.47,1.3,2.6,2.77,2.54,1.38-.06,2.48-1.16,2.54-2.54h6.66c.06,1.47,1.3,2.6,2.77,2.54,1.38-.06,2.48-1.16,2.54-2.54h.58c.93,0,1.68-.76,1.69-1.69v-3.87c0-.38-.08-.76-.22-1.11Zm-16.67,7.77c-.67,0-1.22-.54-1.22-1.22s.54-1.22,1.22-1.22c.67,0,1.22.54,1.22,1.22h0c0,.67-.55,1.22-1.22,1.22h0Zm11.97,0c-.67,0-1.22-.54-1.22-1.22,0-.67.54-1.22,1.22-1.22.67,0,1.22.54,1.22,1.22h0c0,.67-.55,1.22-1.22,1.22h0Zm-1.08-10.81h1.96c.53,0,1.01.31,1.22.8l1.05,2.44h-4.23v-3.24Z" fill="#124c8f"/><path id="Trazado_190" d="m15.3,21.7h5.09c.4,0,.72-.32.72-.72,0-.4-.32-.72-.72-.72h-5.09c-.39,0-.72.31-.72.71,0,0,0,0,0,.01,0,.39.32.71.72.72Z" fill="#124c8f"/><path id="Trazado_191" d="m13.94,24.46h5.09c.4,0,.72-.32.72-.72,0-.4-.32-.72-.72-.72h-5.09c-.39,0-.72.31-.72.71,0,0,0,0,0,.01,0,.39.32.71.72.72Z" fill="#124c8f"/><path id="Trazado_192" d="m18.42,26.51c0-.39-.31-.72-.71-.72,0,0,0,0-.01,0h-5.12c-.4,0-.72.32-.72.72,0,.4.32.72.72.72h5.09c.39.03.72-.27.75-.65,0-.02,0-.05,0-.07Z" fill="#124c8f"/></g></svg>