<?xml version="1.0" encoding="UTF-8"?><svg id="Capa_1" xmlns="http://www.w3.org/2000/svg" width="141.75" height="64.3" viewBox="0 0 141.75 64.3"><path id="Trazado_212" d="m29.23,2.73L3.19,10.84S-3.09,51.5,29.23,61.56c32.32-10.07,26.04-50.72,26.04-50.72L29.23,2.73Z" fill="#134c8f"/><g id="Grupo_234"><path id="Trazado_213" d="m29.23,64.3c-.05,0-.1,0-.15-.02-7.68-2.26-14.44-6.91-19.3-13.27-4.01-5.49-6.77-11.78-8.09-18.45C.09,24.86-.24,16.95.71,9.15c.03-.19.17-.34.35-.4L29.08.02c.1-.03.2-.03.3,0l28.02,8.72c.18.06.32.21.35.4.95,7.8.62,15.71-.97,23.41-1.32,6.67-4.08,12.96-8.09,18.45-4.86,6.36-11.62,11.01-19.3,13.27-.05.02-.1.02-.15.02ZM1.66,9.61c-.88,7.59-.54,15.28,1.01,22.76,1.29,6.52,3.99,12.68,7.91,18.04,4.7,6.15,11.22,10.65,18.64,12.86,7.42-2.21,13.94-6.71,18.64-12.86,3.92-5.36,6.62-11.52,7.92-18.04,1.55-7.48,1.89-15.17,1.01-22.76L29.23,1.03,1.66,9.61Z" fill="#134c8f"/></g><path id="Trazado_214" d="m47.43,15.44l-13.15-4.1v2.98l3.4,1.06v22.52c0,3.47-.26,4.65-2.29,6.64-1.69,1.54-3.89,2.4-6.18,2.41-2.29-.01-4.49-.87-6.18-2.41-2.04-1.98-2.29-3.16-2.29-6.64V15.39l3.4-1.06v-2.98l-13.15,4.1c-.31,2.77-.29,3.08-.29,3.08l3.27-1.02v20.34c-.14,4.05,1.42,7.98,4.32,10.82,2.93,2.82,6.88,4.33,10.94,4.2,4.06.13,8.01-1.38,10.94-4.2,2.89-2.84,4.46-6.76,4.31-10.82v-20.34l3.26,1.02s.02-.32-.29-3.09Z" fill="#43b6ab"/><g id="U-Shop"><g isolation="isolate"><path d="m67.37,35.85v-6.32c0-1.54-.71-1.59-1.91-1.82v-.55h6.58v.55c-1.2.23-1.91.28-1.91,1.82v6.65c0,4.09,2.16,4.74,3.77,4.74s3.98-.64,3.98-4.41v-6.97c0-1.54-.76-1.59-1.95-1.82v-.55h5.01v.55c-1.31.23-2.07.28-2.07,1.82v6.51c0,4.64-2.81,5.89-5.68,5.89-2.58,0-5.82-.97-5.82-6.07Z" fill="#134c8f"/><path d="m82.71,35.16h7.13v1.17h-7.13v-1.17Z" fill="#134c8f"/><path d="m92.26,40.48l-.18-2.97h.62c.58,2.12,2.05,3.61,4.12,3.61,1.7,0,2.85-1.13,2.85-2.62s-1.17-2.39-3.15-3.31c-2-.92-4.18-2.14-4.18-4.65,0-2.16,1.66-3.75,4.85-3.75,2.39,0,3.54.92,4.23,1.36l.07,3.01h-.58c-.53-1.98-1.59-3.56-3.63-3.56-1.7,0-2.46,1.03-2.46,2.16,0,1.2.85,1.98,2.92,2.94,1.79.83,4.6,2.12,4.6,4.97,0,2.58-2.37,4.25-5.38,4.25-2.41,0-4.05-1.01-4.69-1.45Z" fill="#134c8f"/><path d="m112.15,39.83v-4.81c0-1.4-.55-2.14-1.7-2.14-.6,0-1.59.21-2.6,1.4v5.54c0,1.01.57,1.08,1.4,1.26v.55h-5.54v-.55c.99-.18,1.68-.25,1.68-1.26v-10.72c0-.83-.25-1.29-1.68-1.45v-.51c1.43-.23,2.55-.6,3.68-1.31l.46.44v7.15c.97-1.17,2.16-2.12,3.89-2.12,2.32,0,2.87,1.7,2.87,3.54v4.97c0,1.01.58,1.08,1.52,1.26v.55h-5.38v-.55c.83-.18,1.4-.25,1.4-1.26Z" fill="#134c8f"/><path d="m116.96,36.66c0-3.38,2.67-5.34,5.59-5.34s5.33,1.96,5.33,5.2-2.67,5.33-5.59,5.33-5.33-1.96-5.33-5.2Zm5.63,4.39c1.4,0,2.62-1.29,2.62-4.02,0-2.55-1.08-4.92-2.99-4.92-1.38,0-2.62,1.29-2.62,4.05,0,2.53,1.1,4.9,2.99,4.9Z" fill="#134c8f"/><path d="m133.01,41.4v2.44c0,1.08.62,1.13,1.84,1.29v.55h-5.93v-.55c1.08-.16,1.63-.21,1.63-1.29v-9.38c0-.83-.18-1.29-1.63-1.45v-.51c1.63-.25,2.69-.62,3.84-1.33l.46.44-.97,2.6h.46c.62-1.31,2.05-2.88,4-2.88,2.09,0,4.12,1.77,4.12,4.9,0,3.52-2.58,5.63-5.54,5.63-.85,0-1.61-.16-2.28-.46Zm2.3-.37c1.59,0,2.92-1.38,2.92-4.12,0-2.34-.99-4.09-2.67-4.09s-2.55,1.86-2.55,2.6v2.62c0,1.45.57,2.99,2.3,2.99Z" fill="#134c8f"/></g></g></svg>